<svg id="Layer_1" data-name="Layer 1" xmlns="http://www.w3.org/2000/svg" width="1353.13" height="882.1" viewBox="0 0 1353.13 882.1"><defs><style>.cls-1,.cls-13,.cls-2{fill:#f05b26;}.cls-13,.cls-2,.cls-21,.cls-22,.cls-32{font-size:24px;}.cls-2,.cls-22,.cls-32{font-family:NHaasGroteskDSPro-65Md, Neue Haas Grotesk Display Pro;font-weight:500;}.cls-3{letter-spacing:-0.01em;}.cls-4{letter-spacing:0em;}.cls-5{letter-spacing:-0.02em;}.cls-6{letter-spacing:-0.04em;}.cls-7{letter-spacing:0em;}.cls-8{letter-spacing:0em;}.cls-9{letter-spacing:-0.02em;}.cls-10{letter-spacing:-0.01em;}.cls-11,.cls-12,.cls-20,.cls-30{fill:none;}.cls-11,.cls-12{stroke:#f05b26;}.cls-11,.cls-20{stroke-miterlimit:10;}.cls-11{stroke-width:2px;}.cls-12,.cls-30{stroke-linecap:round;stroke-linejoin:round;}.cls-12,.cls-20,.cls-30{stroke-width:4px;}.cls-13,.cls-21{font-family:NHaasGroteskDSPro-55Rg, Neue Haas Grotesk Display Pro;}.cls-14{letter-spacing:-0.01em;}.cls-15{letter-spacing:-0.01em;}.cls-16{letter-spacing:-0.05em;}.cls-17{letter-spacing:0em;}.cls-18{letter-spacing:0.01em;}.cls-19{letter-spacing:0.01em;}.cls-20,.cls-30{stroke:#b344b5;}.cls-21,.cls-22,.cls-29{fill:#b344b5;}.cls-23{letter-spacing:0em;}.cls-24{letter-spacing:0em;}.cls-25{letter-spacing:-0.01em;}.cls-26{letter-spacing:-0.01em;}.cls-27{letter-spacing:-0.11em;}.cls-28{letter-spacing:0em;}.cls-31,.cls-32{fill:#0067ce;}.cls-33{letter-spacing:0em;}</style></defs><path class="cls-1" d="M122.9,318a60.17,60.17,0,1,1-60.17,60.17A60.24,60.24,0,0,1,122.9,318m0-3.83a64,64,0,1,0,64,64,64,64,0,0,0-64-64Z"/><path class="cls-1" d="M172.3,393.25H73.67a2,2,0,0,1-2-2V375.19a2,2,0,0,1,2-2H172.3a2,2,0,0,1,2,2v16.06A2,2,0,0,1,172.3,393.25Zm-96.63-4H170.3V377.19H75.67Z"/><path class="cls-1" d="M172.34,377.19H73.67a2,2,0,0,1-.69-3.87l25.78-9.45a2.09,2.09,0,0,1,.69-.12h47.1a2,2,0,0,1,.69.12L173,373.32a2,2,0,0,1-.69,3.87Zm-87.4-4h76.12l-14.86-5.44H99.81Z"/><path class="cls-1" d="M111.86,385.22H82.58a2,2,0,1,1,0-4h29.28a2,2,0,1,1,0,4Z"/><path class="cls-1" d="M123,388.2a2,2,0,0,1-2-2v-6a2,2,0,0,1,4,0v6A2,2,0,0,1,123,388.2Z"/><path class="cls-1" d="M125.94,385.22h-6a2,2,0,0,1,0-4h6a2,2,0,0,1,0,4Z"/><path class="cls-1" d="M151.53,385.22h-3.78a2,2,0,0,1,0-4h3.78a2,2,0,0,1,0,4Z"/><path class="cls-1" d="M163.8,384.92H160a2,2,0,0,1,0-4h3.77a2,2,0,0,1,0,4Z"/><text class="cls-2" transform="translate(250.04 265.99)">D<tspan class="cls-3" x="16.13" y="0">e</tspan><tspan class="cls-4" x="28.94" y="0">vic</tspan><tspan class="cls-5" x="58.78" y="0">e</tspan><tspan class="cls-6" x="71.35" y="0">’</tspan><tspan x="75.1" y="0">s </tspan><tspan class="cls-7" x="90.77" y="0">C</tspan><tspan x="107.3" y="0">o</tspan><tspan class="cls-8" x="121.08" y="0">n</tspan><tspan x="134.13" y="0">figu</tspan><tspan class="cls-9" x="173.81" y="0">r</tspan><tspan class="cls-10" x="181.87" y="0">a</tspan><tspan x="194.16" y="0">tion</tspan></text><text class="cls-2" transform="translate(80.27 265.99)">D<tspan class="cls-3" x="16.13" y="0">e</tspan><tspan class="cls-4" x="28.94" y="0">vice 1</tspan></text><line class="cls-11" x1="186.9" y1="378.15" x2="237.38" y2="378.15"/><rect class="cls-12" x="237.38" y="299.49" width="259.78" height="337.21"/><text class="cls-13" transform="translate(266.67 355.18)"><tspan class="cls-14">E</tspan><tspan x="14.57" y="0">thern</tspan><tspan class="cls-15" x="68.3" y="0">e</tspan><tspan x="80.85" y="0">t I</tspan><tspan class="cls-3" x="97.51" y="0">n</tspan><tspan class="cls-8" x="109.94" y="0">t</tspan><tspan x="117.19" y="0">er</tspan><tspan class="cls-14" x="138.21" y="0">f</tspan><tspan x="144.91" y="0">aces</tspan></text><text class="cls-13" transform="translate(266.67 415.86)"><tspan class="cls-16">F</tspan><tspan class="cls-17" x="12.79" y="0">ail</tspan><tspan class="cls-3" x="34.34" y="0">ov</tspan><tspan x="58.15" y="0">er S</tspan><tspan class="cls-15" x="98.01" y="0">e</tspan><tspan class="cls-14" x="110.57" y="0">t</tspan><tspan x="117.57" y="0">tings</tspan></text><text class="cls-13" transform="translate(266.67 476.54)">U<tspan class="cls-18" x="15.79" y="0">s</tspan><tspan x="27.5" y="0">er </tspan><tspan class="cls-14" x="52.34" y="0">A</tspan><tspan x="67.53" y="0">uthe</tspan><tspan class="cls-3" x="112.85" y="0">n</tspan><tspan x="125.28" y="0">ti</tspan><tspan class="cls-19" x="137.23" y="0">c</tspan><tspan class="cls-3" x="149.93" y="0">a</tspan><tspan x="161.93" y="0">tion</tspan></text><text class="cls-13" transform="translate(267.99 537.21)">D<tspan class="cls-3" x="16.42" y="0">e</tspan><tspan x="28.97" y="0">vice </tspan><tspan class="cls-9" x="73.68" y="0">P</tspan><tspan class="cls-17" x="87.79" y="0">orts</tspan></text><text class="cls-13" transform="translate(267.99 597.89)"><tspan class="cls-3">e</tspan><tspan class="cls-8" x="12.55" y="0">t</tspan><tspan x="19.8" y="0">c...</tspan></text><rect class="cls-20" x="598.48" y="81.2" width="259.78" height="337.21"/><text class="cls-21" transform="translate(627.76 136.9)"><tspan class="cls-14">E</tspan><tspan x="14.57" y="0">thern</tspan><tspan class="cls-15" x="68.3" y="0">e</tspan><tspan x="80.85" y="0">t I</tspan><tspan class="cls-3" x="97.51" y="0">n</tspan><tspan class="cls-8" x="109.94" y="0">t</tspan><tspan x="117.19" y="0">er</tspan><tspan class="cls-14" x="138.21" y="0">f</tspan><tspan x="144.91" y="0">aces</tspan></text><text class="cls-21" transform="translate(627.76 197.58)"><tspan class="cls-16">F</tspan><tspan class="cls-17" x="12.79" y="0">ail</tspan><tspan class="cls-3" x="34.34" y="0">ov</tspan><tspan x="58.15" y="0">er S</tspan><tspan class="cls-15" x="98.01" y="0">e</tspan><tspan class="cls-14" x="110.57" y="0">t</tspan><tspan x="117.57" y="0">tings</tspan></text><text class="cls-21" transform="translate(627.76 258.25)">U<tspan class="cls-18" x="15.79" y="0">s</tspan><tspan x="27.5" y="0">er </tspan><tspan class="cls-14" x="52.34" y="0">A</tspan><tspan x="67.53" y="0">uthe</tspan><tspan class="cls-3" x="112.85" y="0">n</tspan><tspan x="125.28" y="0">ti</tspan><tspan class="cls-19" x="137.23" y="0">c</tspan><tspan class="cls-3" x="149.93" y="0">a</tspan><tspan x="161.93" y="0">tion</tspan></text><text class="cls-21" transform="translate(629.08 318.93)">D<tspan class="cls-3" x="16.42" y="0">e</tspan><tspan x="28.97" y="0">vice </tspan><tspan class="cls-9" x="73.68" y="0">P</tspan><tspan class="cls-17" x="87.79" y="0">orts</tspan></text><text class="cls-21" transform="translate(629.08 379.61)"><tspan class="cls-3">e</tspan><tspan class="cls-8" x="12.55" y="0">t</tspan><tspan x="19.8" y="0">c...</tspan></text><text class="cls-22" transform="translate(595.91 43.58)"><tspan class="cls-23">C</tspan><tspan class="cls-24" x="16.54" y="0">o</tspan><tspan class="cls-25" x="30.31" y="0">n</tspan><tspan class="cls-24" x="43.37" y="0">figu</tspan><tspan class="cls-26" x="83.04" y="0">r</tspan><tspan class="cls-15" x="91.1" y="0">a</tspan><tspan x="103.39" y="0">tion </tspan><tspan class="cls-27" x="147.72" y="0">T</tspan><tspan x="159.62" y="0">empl</tspan><tspan class="cls-10" x="211.87" y="0">a</tspan><tspan class="cls-25" x="224.16" y="0">t</tspan><tspan x="232.01" y="0">e A</tspan></text><rect class="cls-20" x="598.48" y="521.9" width="259.78" height="337.21"/><text class="cls-21" transform="translate(627.76 577.6)">U<tspan class="cls-18" x="15.79" y="0">s</tspan><tspan x="27.5" y="0">er </tspan><tspan class="cls-14" x="52.34" y="0">A</tspan><tspan x="67.53" y="0">uthe</tspan><tspan class="cls-3" x="112.85" y="0">n</tspan><tspan x="125.28" y="0">ti</tspan><tspan class="cls-19" x="137.23" y="0">c</tspan><tspan class="cls-3" x="149.93" y="0">a</tspan><tspan x="161.93" y="0">tion</tspan></text><text class="cls-21" transform="translate(629.08 638.27)">D<tspan class="cls-3" x="16.42" y="0">e</tspan><tspan x="28.97" y="0">vice </tspan><tspan class="cls-9" x="73.68" y="0">P</tspan><tspan class="cls-17" x="87.79" y="0">orts</tspan></text><text class="cls-22" transform="translate(595.95 484.27)"><tspan class="cls-23">C</tspan><tspan class="cls-24" x="16.54" y="0">o</tspan><tspan class="cls-25" x="30.31" y="0">n</tspan><tspan x="43.37" y="0">figu</tspan><tspan class="cls-9" x="83.04" y="0">r</tspan><tspan class="cls-10" x="91.1" y="0">a</tspan><tspan x="103.39" y="0">tion </tspan><tspan class="cls-27" x="147.72" y="0">T</tspan><tspan x="159.62" y="0">empl</tspan><tspan class="cls-15" x="211.87" y="0">a</tspan><tspan class="cls-28" x="224.16" y="0">t</tspan><tspan x="232.01" y="0">e B</tspan></text><line class="cls-12" x1="497.16" y1="355.54" x2="596.52" y2="355.54"/><line class="cls-12" x1="497.16" y1="581.57" x2="596.52" y2="581.57"/><path class="cls-29" d="M561.22,264.1a1.5,1.5,0,0,0,0-3,1.5,1.5,0,0,0,0,3Z"/><line class="cls-30" x1="895.51" y1="249.81" x2="1020" y2="249.81"/><line class="cls-30" x1="1020" y1="249.81" x2="1005.43" y2="239.34"/><line class="cls-30" x1="1020" y1="249.81" x2="1005.43" y2="260.27"/><line class="cls-30" x1="895.51" y1="690.5" x2="1020" y2="690.5"/><line class="cls-30" x1="1020" y1="690.5" x2="1005.43" y2="680.04"/><line class="cls-30" x1="1020" y1="690.5" x2="1005.43" y2="700.97"/><path class="cls-31" d="M1087.77,236.05a33.41,33.41,0,1,1-33.41,33.41,33.45,33.45,0,0,1,33.41-33.41m0-2.12a35.54,35.54,0,1,0,35.54,35.53,35.54,35.54,0,0,0-35.54-35.53Z"/><path class="cls-31" d="M1115.2,277.85h-54.77a1.11,1.11,0,0,1-1.11-1.11v-8.92a1.11,1.11,0,0,1,1.11-1.11h54.77a1.11,1.11,0,0,1,1.11,1.11v8.92A1.11,1.11,0,0,1,1115.2,277.85Zm-53.65-2.22h52.54v-6.7h-52.54Z"/><path class="cls-31" d="M1115.22,268.93h-54.79a1.11,1.11,0,0,1-.38-2.15l14.32-5.24a1,1,0,0,1,.38-.07h26.15a1.07,1.07,0,0,1,.39.07l14.31,5.24a1.11,1.11,0,0,1-.38,2.15Zm-48.52-2.22H1109l-8.25-3H1075Z"/><path class="cls-31" d="M1081.64,273.39h-16.26a1.11,1.11,0,0,1,0-2.22h16.26a1.11,1.11,0,0,1,0,2.22Z"/><path class="cls-31" d="M1087.8,275.05a1.11,1.11,0,0,1-1.11-1.11v-3.32a1.11,1.11,0,0,1,2.22,0v3.32A1.11,1.11,0,0,1,1087.8,275.05Z"/><path class="cls-31" d="M1089.46,273.39h-3.31a1.11,1.11,0,0,1,0-2.22h3.31a1.11,1.11,0,0,1,0,2.22Z"/><path class="cls-31" d="M1103.67,273.39h-2.1a1.11,1.11,0,1,1,0-2.22h2.1a1.11,1.11,0,0,1,0,2.22Z"/><path class="cls-31" d="M1110.48,273.23h-2.1a1.12,1.12,0,0,1,0-2.23h2.1a1.12,1.12,0,0,1,0,2.23Z"/><path class="cls-31" d="M1173.23,236.05a33.41,33.41,0,1,1-33.41,33.41,33.45,33.45,0,0,1,33.41-33.41m0-2.12a35.54,35.54,0,1,0,35.54,35.53,35.53,35.53,0,0,0-35.54-35.53Z"/><path class="cls-31" d="M1200.66,277.85H1145.9a1.11,1.11,0,0,1-1.11-1.11v-8.92a1.11,1.11,0,0,1,1.11-1.11h54.76a1.11,1.11,0,0,1,1.11,1.11v8.92A1.11,1.11,0,0,1,1200.66,277.85ZM1147,275.63h52.54v-6.7H1147Z"/><path class="cls-31" d="M1200.68,268.93H1145.9a1.11,1.11,0,0,1-.39-2.15l14.32-5.24a1,1,0,0,1,.38-.07h26.16a1,1,0,0,1,.38.07l14.31,5.24a1.11,1.11,0,0,1-.38,2.15Zm-48.52-2.22h42.26l-8.25-3h-25.76Z"/><path class="cls-31" d="M1167.1,273.39h-16.26a1.11,1.11,0,1,1,0-2.22h16.26a1.11,1.11,0,0,1,0,2.22Z"/><path class="cls-31" d="M1173.26,275.05a1.11,1.11,0,0,1-1.11-1.11v-3.32a1.11,1.11,0,1,1,2.22,0v3.32A1.11,1.11,0,0,1,1173.26,275.05Z"/><path class="cls-31" d="M1174.92,273.39h-3.31a1.11,1.11,0,1,1,0-2.22h3.31a1.11,1.11,0,0,1,0,2.22Z"/><path class="cls-31" d="M1189.13,273.39H1187a1.11,1.11,0,1,1,0-2.22h2.1a1.11,1.11,0,0,1,0,2.22Z"/><path class="cls-31" d="M1195.94,273.23h-2.09a1.12,1.12,0,0,1,0-2.23h2.09a1.12,1.12,0,0,1,0,2.23Z"/><path class="cls-31" d="M1258.69,236.05a33.41,33.41,0,1,1-33.41,33.41,33.44,33.44,0,0,1,33.41-33.41m0-2.12a35.54,35.54,0,1,0,35.54,35.53,35.53,35.53,0,0,0-35.54-35.53Z"/><path class="cls-31" d="M1286.12,277.85h-54.76a1.11,1.11,0,0,1-1.11-1.11v-8.92a1.11,1.11,0,0,1,1.11-1.11h54.76a1.12,1.12,0,0,1,1.12,1.11v8.92A1.12,1.12,0,0,1,1286.12,277.85Zm-53.65-2.22H1285v-6.7h-52.54Z"/><path class="cls-31" d="M1286.14,268.93h-54.78a1.11,1.11,0,0,1-.38-2.15l14.31-5.24a1,1,0,0,1,.38-.07h26.16a1,1,0,0,1,.38.07l14.31,5.24a1.11,1.11,0,0,1-.38,2.15Zm-48.52-2.22h42.26l-8.25-3h-25.76Z"/><path class="cls-31" d="M1252.56,273.39h-16.25a1.11,1.11,0,1,1,0-2.22h16.25a1.11,1.11,0,0,1,0,2.22Z"/><path class="cls-31" d="M1258.72,275.05a1.11,1.11,0,0,1-1.11-1.11v-3.32a1.12,1.12,0,0,1,2.23,0v3.32A1.12,1.12,0,0,1,1258.72,275.05Z"/><path class="cls-31" d="M1260.38,273.39h-3.31a1.11,1.11,0,1,1,0-2.22h3.31a1.11,1.11,0,0,1,0,2.22Z"/><path class="cls-31" d="M1274.59,273.39h-2.1a1.11,1.11,0,1,1,0-2.22h2.1a1.11,1.11,0,0,1,0,2.22Z"/><path class="cls-31" d="M1281.41,273.23h-2.1a1.12,1.12,0,0,1,0-2.23h2.1a1.12,1.12,0,0,1,0,2.23Z"/><text class="cls-32" transform="translate(1052.23 215.19)">D<tspan class="cls-10" x="16.13" y="0">e</tspan><tspan class="cls-33" x="28.94" y="0">vices 2... 10</tspan></text><path class="cls-31" d="M1087.77,676.75a33.41,33.41,0,1,1-33.41,33.41,33.45,33.45,0,0,1,33.41-33.41m0-2.13a35.54,35.54,0,1,0,35.54,35.54,35.54,35.54,0,0,0-35.54-35.54Z"/><path class="cls-31" d="M1115.2,718.54h-54.77a1.11,1.11,0,0,1-1.11-1.11v-8.91a1.11,1.11,0,0,1,1.11-1.11h54.77a1.11,1.11,0,0,1,1.11,1.11v8.91A1.11,1.11,0,0,1,1115.2,718.54Zm-53.65-2.22h52.54v-6.69h-52.54Z"/><path class="cls-31" d="M1115.22,709.63h-54.79a1.11,1.11,0,0,1-.38-2.16l14.32-5.24a1.22,1.22,0,0,1,.38-.07h26.15a1.34,1.34,0,0,1,.39.07l14.31,5.24a1.11,1.11,0,0,1-.38,2.16Zm-48.52-2.22H1109l-8.25-3H1075Z"/><path class="cls-31" d="M1081.64,714.09h-16.26a1.12,1.12,0,0,1,0-2.23h16.26a1.12,1.12,0,0,1,0,2.23Z"/><path class="cls-31" d="M1087.8,715.74a1.11,1.11,0,0,1-1.11-1.11v-3.31a1.11,1.11,0,0,1,2.22,0v3.31A1.11,1.11,0,0,1,1087.8,715.74Z"/><path class="cls-31" d="M1089.46,714.09h-3.31a1.12,1.12,0,0,1,0-2.23h3.31a1.12,1.12,0,0,1,0,2.23Z"/><path class="cls-31" d="M1103.67,714.09h-2.1a1.12,1.12,0,0,1,0-2.23h2.1a1.12,1.12,0,0,1,0,2.23Z"/><path class="cls-31" d="M1110.48,713.92h-2.1a1.11,1.11,0,0,1,0-2.22h2.1a1.11,1.11,0,1,1,0,2.22Z"/><path class="cls-31" d="M1173.23,676.75a33.41,33.41,0,1,1-33.41,33.41,33.45,33.45,0,0,1,33.41-33.41m0-2.13a35.54,35.54,0,1,0,35.54,35.54,35.54,35.54,0,0,0-35.54-35.54Z"/><path class="cls-31" d="M1200.66,718.54H1145.9a1.1,1.1,0,0,1-1.11-1.11v-8.91a1.1,1.1,0,0,1,1.11-1.11h54.76a1.1,1.1,0,0,1,1.11,1.11v8.91A1.1,1.1,0,0,1,1200.66,718.54ZM1147,716.32h52.54v-6.69H1147Z"/><path class="cls-31" d="M1200.68,709.63H1145.9a1.11,1.11,0,0,1-.39-2.16l14.32-5.24a1.22,1.22,0,0,1,.38-.07h26.16a1.22,1.22,0,0,1,.38.07l14.31,5.24a1.11,1.11,0,0,1-.38,2.16Zm-48.52-2.22h42.26l-8.25-3h-25.76Z"/><path class="cls-31" d="M1167.1,714.09h-16.26a1.12,1.12,0,0,1,0-2.23h16.26a1.12,1.12,0,0,1,0,2.23Z"/><path class="cls-31" d="M1173.26,715.74a1.11,1.11,0,0,1-1.11-1.11v-3.31a1.11,1.11,0,1,1,2.22,0v3.31A1.11,1.11,0,0,1,1173.26,715.74Z"/><path class="cls-31" d="M1174.92,714.09h-3.31a1.12,1.12,0,0,1,0-2.23h3.31a1.12,1.12,0,0,1,0,2.23Z"/><path class="cls-31" d="M1189.13,714.09H1187a1.12,1.12,0,0,1,0-2.23h2.1a1.12,1.12,0,0,1,0,2.23Z"/><path class="cls-31" d="M1195.94,713.92h-2.09a1.11,1.11,0,1,1,0-2.22h2.09a1.11,1.11,0,1,1,0,2.22Z"/><path class="cls-31" d="M1258.69,676.75a33.41,33.41,0,1,1-33.41,33.41,33.44,33.44,0,0,1,33.41-33.41m0-2.13a35.54,35.54,0,1,0,35.54,35.54,35.54,35.54,0,0,0-35.54-35.54Z"/><path class="cls-31" d="M1286.12,718.54h-54.76a1.1,1.1,0,0,1-1.11-1.11v-8.91a1.1,1.1,0,0,1,1.11-1.11h54.76a1.11,1.11,0,0,1,1.12,1.11v8.91A1.11,1.11,0,0,1,1286.12,718.54Zm-53.65-2.22H1285v-6.69h-52.54Z"/><path class="cls-31" d="M1286.14,709.63h-54.78a1.11,1.11,0,0,1-.38-2.16l14.31-5.24a1.22,1.22,0,0,1,.38-.07h26.16a1.22,1.22,0,0,1,.38.07l14.31,5.24a1.11,1.11,0,0,1-.38,2.16Zm-48.52-2.22h42.26l-8.25-3h-25.76Z"/><path class="cls-31" d="M1252.56,714.09h-16.25a1.12,1.12,0,0,1,0-2.23h16.25a1.12,1.12,0,0,1,0,2.23Z"/><path class="cls-31" d="M1258.72,715.74a1.11,1.11,0,0,1-1.11-1.11v-3.31a1.12,1.12,0,0,1,2.23,0v3.31A1.12,1.12,0,0,1,1258.72,715.74Z"/><path class="cls-31" d="M1260.38,714.09h-3.31a1.12,1.12,0,0,1,0-2.23h3.31a1.12,1.12,0,0,1,0,2.23Z"/><path class="cls-31" d="M1274.59,714.09h-2.1a1.12,1.12,0,0,1,0-2.23h2.1a1.12,1.12,0,0,1,0,2.23Z"/><path class="cls-31" d="M1281.41,713.92h-2.1a1.11,1.11,0,1,1,0-2.22h2.1a1.11,1.11,0,1,1,0,2.22Z"/><text class="cls-32" transform="translate(1052.23 655.89)">D<tspan class="cls-10" x="16.13" y="0">e</tspan><tspan class="cls-33" x="28.94" y="0">vices 11... </tspan><tspan class="cls-26" x="126.05" y="0">2</tspan><tspan x="138.81" y="0">4</tspan></text></svg>