<svg id="Layer_1" data-name="Layer 1" xmlns="http://www.w3.org/2000/svg" width="1353.13" height="882.1" viewBox="0 0 1353.13 882.1"><defs><style>.cls-1{fill:#ffb5a7;}.cls-1,.cls-15,.cls-3,.cls-5{stroke:#000;stroke-miterlimit:10;}.cls-2{font-size:24px;font-family:NHaasGroteskDSPro-55Rg, Neue Haas Grotesk Display Pro;}.cls-3{fill:#f9dcc4;}.cls-4{letter-spacing:-0.02em;}.cls-5{fill:#f8edeb;}.cls-6{letter-spacing:-0.01em;}.cls-7{letter-spacing:-0.02em;}.cls-8{letter-spacing:-0.03em;}.cls-9{letter-spacing:0.01em;}.cls-10{letter-spacing:-0.01em;}.cls-11{letter-spacing:0em;}.cls-12{letter-spacing:-0.03em;}.cls-13{letter-spacing:-0.01em;}.cls-14{letter-spacing:0em;}.cls-15{fill:none;}</style></defs><circle class="cls-1" cx="494.6" cy="441.05" r="113"/><text class="cls-2" transform="translate(478.24 451.34)">Me</text><circle class="cls-3" cx="143.1" cy="441.55" r="113"/><text class="cls-2" transform="translate(79.01 437.44)">P<tspan class="cls-4" x="14.47" y="0">r</tspan><tspan x="22.22" y="0">oduct Line</tspan><tspan x="18.53" y="28.8">Manager</tspan></text><circle class="cls-5" cx="846.1" cy="441.55" r="113"/><text class="cls-2" transform="translate(754.73 437.44)">Principal Engineer<tspan x="20.05" y="28.8">(Ou</tspan><tspan class="cls-6" x="58.55" y="28.8">t</tspan><tspan x="65.67" y="28.8">-</tspan><tspan class="cls-6" x="73.93" y="28.8">o</tspan><tspan class="cls-7" x="86.92" y="28.8">f</tspan><tspan x="93.49" y="28.8">-Band)</tspan></text><circle class="cls-5" cx="846.1" cy="144.55" r="113"/><text class="cls-2" transform="translate(754.73 140.44)">Principal Engineer<tspan x="39.12" y="28.8">(Bac</tspan><tspan class="cls-8" x="86.57" y="28.8">k</tspan><tspan x="97.58" y="28.8">end)</tspan></text><circle class="cls-5" cx="1187.61" cy="144.55" r="113"/><text class="cls-2" transform="translate(1113.9 140.44)">S<tspan class="cls-6" x="15.02" y="0">of</tspan><tspan class="cls-9" x="34.82" y="0">t</tspan><tspan class="cls-10" x="42.43" y="0">w</tspan><tspan class="cls-11" x="59.69" y="0">a</tspan><tspan class="cls-4" x="71.93" y="0">r</tspan><tspan x="79.68" y="0">e </tspan><tspan class="cls-7" x="96.29" y="0">L</tspan><tspan x="109.1" y="0">ead</tspan><tspan x="20.2" y="28.8">(</tspan><tspan class="cls-12" x="27.49" y="28.8">F</tspan><tspan class="cls-4" x="40.52" y="28.8">r</tspan><tspan x="48.28" y="28.8">o</tspan><tspan class="cls-13" x="61.5" y="28.8">n</tspan><tspan class="cls-14" x="73.93" y="28.8">t</tspan><tspan x="81.18" y="28.8">end)</tspan></text><circle class="cls-5" cx="846.1" cy="738.55" r="113"/><text class="cls-2" transform="translate(754.73 734.44)">Principal Engineer<tspan x="67.28" y="28.8">(Io</tspan><tspan class="cls-9" x="93.27" y="28.8">T</tspan><tspan x="108.15" y="28.8">)</tspan></text><line class="cls-15" x1="255.6" y1="441.05" x2="381.6" y2="441.05"/><line class="cls-15" x1="607.6" y1="441.55" x2="733.1" y2="441.55"/><polyline class="cls-15" points="494.6 328.05 494.6 144.55 733.1 144.55"/><polyline class="cls-15" points="494.6 555.05 494.6 738.55 733.1 738.55"/><line class="cls-15" x1="959.1" y1="144.55" x2="1074.61" y2="144.55"/></svg>